<svg id="visual" viewBox="0 0 540 960" width="540" height="960" xmlns="http://www.w3.org/2000/svg" xmlns:xlink="http://www.w3.org/1999/xlink" version="1.1"><rect width="540" height="960" fill="#1c1c1b"></rect><g><g transform="translate(31 957)"><path d="M0 -34L21.8 -26L33.4 -5.9L29.4 17L11.6 31.9L-11.6 31.9L-29.4 17L-33.4 -5.9L-21.8 -26Z" fill="none" stroke="#6ff7d9" stroke-width="2"></path></g><g transform="translate(276 611)"><path d="M0 -27L17.4 -20.7L26.6 -4.7L23.4 13.5L9.2 25.4L-9.2 25.4L-23.4 13.5L-26.6 -4.7L-17.4 -20.7Z" fill="none" stroke="#6ff7d9" stroke-width="2"></path></g><g transform="translate(79 485)"><path d="M0 -29L18.6 -22.2L28.6 -5L25.1 14.5L9.9 27.3L-9.9 27.3L-25.1 14.5L-28.6 -5L-18.6 -22.2Z" fill="none" stroke="#6ff7d9" stroke-width="2"></path></g><g transform="translate(2 806)"><path d="M0 -25L16.1 -19.2L24.6 -4.3L21.7 12.5L8.6 23.5L-8.6 23.5L-21.7 12.5L-24.6 -4.3L-16.1 -19.2Z" fill="none" stroke="#6ff7d9" stroke-width="2"></path></g><g transform="translate(486 783)"><path d="M0 -16L10.3 -12.3L15.8 -2.8L13.9 8L5.5 15L-5.5 15L-13.9 8L-15.8 -2.8L-10.3 -12.3Z" fill="none" stroke="#6ff7d9" stroke-width="2"></path></g><g transform="translate(382 551)"><path d="M0 -21L13.5 -16.1L20.7 -3.6L18.2 10.5L7.2 19.7L-7.2 19.7L-18.2 10.5L-20.7 -3.6L-13.5 -16.1Z" fill="none" stroke="#6ff7d9" stroke-width="2"></path></g><g transform="translate(152 885)"><path d="M0 -24L15.4 -18.4L23.6 -4.2L20.8 12L8.2 22.6L-8.2 22.6L-20.8 12L-23.6 -4.2L-15.4 -18.4Z" fill="none" stroke="#6ff7d9" stroke-width="2"></path></g><g transform="translate(233 253)"><path d="M0 -22L14.1 -16.9L21.7 -3.8L19.1 11L7.5 20.7L-7.5 20.7L-19.1 11L-21.7 -3.8L-14.1 -16.9Z" fill="none" stroke="#6ff7d9" stroke-width="2"></path></g><g transform="translate(145 197)"><path d="M0 -18L11.6 -13.8L17.7 -3.1L15.6 9L6.2 16.9L-6.2 16.9L-15.6 9L-17.7 -3.1L-11.6 -13.8Z" stroke="#6ff7d9" fill="none" stroke-width="2"></path></g><g transform="translate(422 692)"><path d="M0 -25L16.1 -19.2L24.6 -4.3L21.7 12.5L8.6 23.5L-8.6 23.5L-21.7 12.5L-24.6 -4.3L-16.1 -19.2Z" stroke="#6ff7d9" fill="none" stroke-width="2"></path></g><g transform="translate(216 523)"><path d="M0 -18L11.6 -13.8L17.7 -3.1L15.6 9L6.2 16.9L-6.2 16.9L-15.6 9L-17.7 -3.1L-11.6 -13.8Z" stroke="#6ff7d9" fill="none" stroke-width="2"></path></g><g transform="translate(318 125)"><path d="M0 -26L16.7 -19.9L25.6 -4.5L22.5 13L8.9 24.4L-8.9 24.4L-22.5 13L-25.6 -4.5L-16.7 -19.9Z" stroke="#6ff7d9" fill="none" stroke-width="2"></path></g><g transform="translate(178 745)"><path d="M0 -18L11.6 -13.8L17.7 -3.1L15.6 9L6.2 16.9L-6.2 16.9L-15.6 9L-17.7 -3.1L-11.6 -13.8Z" stroke="#6ff7d9" fill="none" stroke-width="2"></path></g><g transform="translate(10 206)"><path d="M0 -26L16.7 -19.9L25.6 -4.5L22.5 13L8.9 24.4L-8.9 24.4L-22.5 13L-25.6 -4.5L-16.7 -19.9Z" stroke="#6ff7d9" fill="none" stroke-width="2"></path></g></g></svg>