<svg id="visual" viewBox="0 0 540 960" width="540" height="960" xmlns="http://www.w3.org/2000/svg" xmlns:xlink="http://www.w3.org/1999/xlink" version="1.1"><rect width="540" height="960" fill="#1c1c1b"></rect><g><g transform="translate(175 692)"><path d="M0 -104.1L61.2 -84.2L99 -32.2L99 32.2L61.2 84.2L0 104.1L-61.2 84.2L-99 32.2L-99 -32.2L-61.2 -84.2Z" fill="none" stroke="#383838" stroke-width="3"></path></g><g transform="translate(78 111)"><path d="M0 -104L61.1 -84.1L98.9 -32.1L98.9 32.1L61.1 84.1L0 104L-61.1 84.1L-98.9 32.1L-98.9 -32.1L-61.1 -84.1Z" fill="none" stroke="#383838" stroke-width="3"></path></g><g transform="translate(473 347)"><path d="M0 -104L61.1 -84.1L98.9 -32.1L98.9 32.1L61.1 84.1L0 104L-61.1 84.1L-98.9 32.1L-98.9 -32.1L-61.1 -84.1Z" fill="none" stroke="#383838" stroke-width="3"></path></g><g transform="translate(429 653)"><path d="M0 -104L61.1 -84.1L98.9 -32.1L98.9 32.1L61.1 84.1L0 104L-61.1 84.1L-98.9 32.1L-98.9 -32.1L-61.1 -84.1Z" fill="none" stroke="#383838" stroke-width="3"></path></g><g transform="translate(315 896)"><path d="M0 -104L61.1 -84.1L98.9 -32.1L98.9 32.1L61.1 84.1L0 104L-61.1 84.1L-98.9 32.1L-98.9 -32.1L-61.1 -84.1Z" fill="none" stroke="#383838" stroke-width="3"></path></g><g transform="translate(312 64)"><path d="M0 -104L61.1 -84.1L98.9 -32.1L98.9 32.1L61.1 84.1L0 104L-61.1 84.1L-98.9 32.1L-98.9 -32.1L-61.1 -84.1Z" fill="none" stroke="#383838" stroke-width="3"></path></g><g transform="translate(118 320)"><path d="M0 -104L61.1 -84.1L98.9 -32.1L98.9 32.1L61.1 84.1L0 104L-61.1 84.1L-98.9 32.1L-98.9 -32.1L-61.1 -84.1Z" stroke="#383838" fill="none" stroke-width="3"></path></g><g transform="translate(86 942)"><path d="M0 -104L61.1 -84.1L98.9 -32.1L98.9 32.1L61.1 84.1L0 104L-61.1 84.1L-98.9 32.1L-98.9 -32.1L-61.1 -84.1Z" stroke="#383838" fill="none" stroke-width="3"></path></g><g transform="translate(513 139)"><path d="M0 -104L61.1 -84.1L98.9 -32.1L98.9 32.1L61.1 84.1L0 104L-61.1 84.1L-98.9 32.1L-98.9 -32.1L-61.1 -84.1Z" stroke="#383838" fill="none" stroke-width="3"></path></g><g transform="translate(521 929)"><path d="M0 -104L61.1 -84.1L98.9 -32.1L98.9 32.1L61.1 84.1L0 104L-61.1 84.1L-98.9 32.1L-98.9 -32.1L-61.1 -84.1Z" stroke="#383838" fill="none" stroke-width="3"></path></g><g transform="translate(17 529)"><path d="M0 -104L61.1 -84.1L98.9 -32.1L98.9 32.1L61.1 84.1L0 104L-61.1 84.1L-98.9 32.1L-98.9 -32.1L-61.1 -84.1Z" stroke="#383838" fill="none" stroke-width="3"></path></g><g transform="translate(284 482)"><path d="M0 -104L61.1 -84.1L98.9 -32.1L98.9 32.1L61.1 84.1L0 104L-61.1 84.1L-98.9 32.1L-98.9 -32.1L-61.1 -84.1Z" stroke="#383838" fill="none" stroke-width="3"></path></g></g></svg>