<svg id="Calque_1" data-name="Calque 1" xmlns="http://www.w3.org/2000/svg" viewBox="0 0 1126.5 2437"><defs><style>.cls-1,.cls-3{fill:#1c1c1b;}.cls-1,.cls-2,.cls-3,.cls-4,.cls-5,.cls-6{stroke:#000;stroke-miterlimit:10;}.cls-2,.cls-4,.cls-5,.cls-6{fill:#fff;}.cls-2,.cls-4{opacity:0.1;}.cls-3,.cls-4,.cls-5,.cls-6{stroke-dasharray:30 30;}.cls-6{opacity:0.07;}</style></defs><title>moto</title><polygon class="cls-1" points="1126 2436.5 1 2436.5 1 1168.91 1 0.5 1126 0.5 1126 2436.5"/><path class="cls-1" d="M0,938.82" transform="translate(0.5 1)"/><path d="M413.81,1009.4c-12.51,13.4-23.35,8.18-34.18,1.9-2-1.18-3.79-2.69-3.85-5.1-.07-2.84,2.69-2.87,4.49-4.06,9.63-6.37,19.6-9.66,31.45-7.22,5.41,1.11,9.45-9.45,6.73-16.54-6.53-17-2.36-27.62,13.63-34.84,1.24-.56,2.87-1.2,3.38-2.26,4.41-9,13.08-13.45,20.47-19.27,1.83-1.43,5-2.32,3.9-5.61-1-2.84-3.93-2.77-6.33-3.29-12.79-2.77-25.89-4.25-38.18-9.09-9-3.56-18.51-6.43-24.38-15.19a7.36,7.36,0,0,0-6.5-3.17c-1.61,0-4,0-4.74-.95-10.64-13.37-25.21-7.38-38.11-7.2-13.3.18-26.6,2.59-39.66,5.67-3,.7-6,.83-8.55,3-2.23,1.9-4.85,2.87-7.64.92-2-1.4-3-3.37-2.22-5.78,1-3,3.41-4.21,6.46-4.39,1-.06,2.09-.28,3.55-.49-2.38-7.2-5.91-13.88-2.11-21.26,1.77-3.42,4-7,8-6.37,21,3.18,41.63-2.2,62.47-2.3,3.64,0,7.49-.48,7.54,7,6.12-21.26,13.5-26.17,33.55-24.23,6.79.65,10.87-1.72,10.38-9.26-.37-5.51.71-10,5.71-13.78,5.2-4,3.84-10.54-2.07-13.44-20.46-10.07-40.28-21.42-61.46-30-6.19-2.52-11-3.73-16.13,2.53s-12.63,8.72-21,8c-23.08-1.85-43.21-8.84-54.51-31.11-5-9.83-3.67-12,5.19-17.89,7.84-5.27,17.47-9.47,18.55-21,.25-2.69,2.76-3.47,5-3.56,10.26-.4,20.53-2.47,30.77-.1,14,3.23,20.08,14.18,24.71,26.11a43.39,43.39,0,0,1,3.11,15.49c0,8.09,4.27,12.51,10.81,15.2,21.15,8.7,40.68,20.72,61.62,29.82,1.27.55,3.13.95,3.6,1.95,6.94,14.79,18.75,5.48,27.93,4.73a62.7,62.7,0,0,1,18.71,1.48c3,.65,5.1,3.2,4.14,6.28-2.15,6.91-.25,13.85-.84,20.74-.53,6.25.61,12.65-6.48,16.83-3.65,2.16-1.45,6.31,1.25,8.5,5.4,4.39,11.14,8.36,16.81,12.41.82.58,2.18,1.16,3,.86,1.61-.6,1.17-2.24.91-3.59-.22-1.09-.51-2.17-.78-3.25-5.77-23.5,1.43-24.56,18-35.8,6.82-4.63,15.44-6.31,23.67-8,9.69-1.93,16.93,1.91,20.69,11,2.21,5.35,4.52,9.33,11.69,5.74,5-2.51,11-1,16.54-1,4,0,9,2.27,8.64-6.45,2.62,3.42,3.71,5.36,5.28,6.79,5.65,5.18,8.89,4.16,11.14-3.3,3.41-11.35,9-15.21,20.41-12.72,11.93,2.6,23.87,5.26,34.13,12.75,8.09,5.92,10,13.83,8.47,22.85-1.37,8.14-3.6,16.13-5.87,26,5-3.94,8.55-6.72,12.07-9.54,12.26-9.83,25.31-18.17,41-21.5,4.95-1.06,7.41-4,6.77-8.88-1.78-13.58,6.35-24.47,9.58-36.67.7-2.63,2.73-4,5.26-4.94,19.73-6.94,37.78-18,57.57-24.48,12.52-4.11,18.07-12.38,21.36-23.72,1.08-3.75,2.57-7.43,3.2-11.26,2.33-14.16,11.06-22.37,24.5-25,16.1-3.11,31.94-.89,45.52,8.62,13.26,9.28,13.88,32,1.19,45.56-11.52,12.27-26.26,19.41-43,22.16-11.44,1.88-20.15-2.91-26.89-11.58-3.35-4.31-6.59-4.88-11.47-2.74-21.15,9.27-42.5,18.1-63.64,27.39-8.65,3.8-10.1,8-8.29,17.13a47.75,47.75,0,0,1,.39,12.48c-.31,4.49,1.74,7.38,5.08,9.82,1.58,1.15,3.21,3,5.17,2,2.41-1.21-.09-2.76-.33-4.18-.4-2.41,1.27-2.93,3-2.83,13,.79,25.11,4.23,34.34,14,2.49,2.64,5,4.36,8.38,4.77q28.21,3.38,56.43,6.62a11,11,0,0,0,4.13-.23c6.72-1.91,12.33-.6,15.66,5.9,3.49,6.83,1.85,13-3.58,18.2-1,.93-1.94,1.85-3.35,3.18,2.88.79,5.51.86,7.32,2.12,3.9,2.73,4,6.73,1.22,10.22-2.49,3.13-6,3.33-8.56,0s-6.24-4.53-10-5.57c-19.94-5.49-40.14-9.33-60.92-9.59-5-.06-9.27.77-12.24,5.43-2.11,3.3-5,4.44-9.34,3.29-21.12-5.66-42.32-11-63.49-16.39-4.34-1.11-8.41.35-12.2,1.92-11.84,4.91-23.52,10.2-35.25,15.36-1.51.67-3.62,1.16-3.63,3,0,2.52,2.45,2.79,4.28,3.13,14.44,2.63,25,12.83,37.27,19.53,5.27,2.87,10,7,15.54,9.64,6.64,3.19,9,10.26,13,15.84,2.12,3,3.81,5.94,7.66,7.16,13.23,4.21,18.43,15,13.63,28-.77,2.07-2,4-2.94,6-2.07,4.44-.22,8.89.54,13.13,1.36,7.67,7.07,2.87,10.73,2.75,9.2-.32,17.79,1.12,25.32,6.66,4.85,3.57,5.37,7.87.61,11.79-8.61,7.07-18.12,9-28.87,4.86-8.74-3.41-9.28-2.91-9.57,6.56a95.07,95.07,0,0,1-4.82,27.89c-3.09,9.1-8.13,16.44-17.5,20.06-1.25.49-3.29,1.33-3.35,2.12-.6,8.42,2.14,16.42,3.63,24.57.8,4.37,4.89,4.82,8.38,5.78,30.8,8.48,35.29,13.68,36.68,45.66.34,7.85,2.66,11.21,10.59,10.87,3.55-.14,7.12,1.39,10.78.62,6.59-1.39,10.87,2,13.52,7.32,3.66,7.44,7.41,14.79,11.33,22.09,9.05,16.87,8.34,35.19,2.12,52.75-3.84,10.82-13.34,17.84-23.36,22.92-11.16,5.65-22.75,10.55-35.06,13.47-2.29.55-5.76.52-6.17,3.4s3.63,2,4.86,3.54c8.7,11.3,19.52,6.78,30.18,4.37,3.51-.8,7.18-.88,10.76-1.39,3.91-.56,7.73-.43,8.42,4.36s-3.06,6-6.76,6.94c-8.3,2.07-16.61,4.07-24.89,6.22-4.77,1.24-9,4.37-14.26,3.94-.27,0-.71,0-.79.21-4.27,9.33-15.17,11.86-20.56,19.81-7.35,10.84-5.34,21.37,2.81,31.08.95,1.12,1.82,3.28.54,3.46-3.28.45-8.73,1.72-9.67-.76-3.62-9.6-12-5.73-18.28-7.76,2,2.88,5.4,3.14,8.23,4.45,1.51.7,3.23,1.34,3.06,3.44s-1.85,2.44-3.55,2.82c-15.52,3.43-15.5,3.46-25.47,14.08a97.6,97.6,0,0,1-7.77,7.59c-5,4.25-6.63,9.51-5.24,15.75,1.54,6.89-2.14,12.34-3.8,18.51C675.09,1442,664.4,1439.53,654,1439c-7.32-.36-9.92,2.25-9.84,9.54.22,17.52-.85,35-.37,52.58.13,5.14,1.89,13.36-8.81,12.25-3.52-.37-2.12,3.89-2.13,6-.15,24.81-.43,49.63-.07,74.44.35,23.84-11.9,40.07-31.92,49.66-19.71,9.45-38.55,4.44-56.58-7.86-16.43-11.2-20.63-26.71-20.67-44.76-.11-40.13,2.71-80.23,1.57-120.37-.08-3,0-5.93-1.07-8.94-4.14,16.87,1.35,34.84-6.21,51.32-2.18-6.79-4.44-13.3-4.21-20.53.5-15.6-.43-31.18-1.56-46.75-.4-5.57-2.56-8.23-8.16-8.07-3.07.09-6.14-.12-9.2,0-7.29.31-14,.16-12.1-10.34a3.15,3.15,0,0,0-1.88-3.47c-8.48-3.21-7.54-10-6.46-16.79,2.42-15.19-7.63-25.32-16-35.08-9.38-10.95-15.47-23.77-23.8-35.23-3.62-5-1.85-9.5,3.88-13.51-5.83-.5-10.18-1.89-15.35-.19-4.55,1.5-8.59-1.75-10.58-6.27-3-6.74-8.13-10-15.29-11.2-9.88-1.65-19.68-3.81-29.47-6-3.73-.82-8.7-1.57-7.28-7,1.22-4.65,5-5.75,9.95-4.43,8.88,2.34,18,3.89,26.94,5.88,6.31,1.41,16.32-2.52,19.27-7.92,2.34-4.3,1.11-8.32-3.42-9.35a54.63,54.63,0,0,1-27.32-15c-3.26-3.24-10.08-4.8-14.89-4.17-11.65,1.5-16.1-6.38-20.41-14-5.45-9.61-5.06-20.39-3.51-31,.53-3.66,2.53-6.74,6.79-5.28,9.14,3.13,19.1,4.21,27.4,10.81l9.67-19c-13.35,6.51-23.85-1.3-35-4.09-2.8-.7-4.32-3.66-2.27-6.79,3.46-5.27,4.4-11.38,6.08-17.26,1.93-6.79,6.2-10,13.21-7,5.9,2.47,11.5.41,17.16-.52,3.17-.53,4.47-3.07,4.53-6.18.07-3.35,0-6.7.16-10,.17-3.6-.56-7.82,1.06-10.65,2.19-3.82,6.48-.61,9.77-.32,4.15.37,5.37-2.34,6.66-5.06,1-2.17,3.07-4.69,1-7-2.24-2.44-5.64-2.29-8.63-1.56-1.76.43-3.28,1.87-6.36,3.73,2.6-7.61,6.54-12.29,12.49-14.9s9.31-6.67,10.42-13a32.45,32.45,0,0,1,2.52-7.07c4.61-10.74,7.68-20.46-1.82-31.36-6.5-7.46-6.5-18.68-7-28.78C414.61,1024.91,414.28,1018.57,413.81,1009.4Zm63.54-48.55c.73-7.53-2.14-10.6-8.51-10.42-6.63.18-13.35-.93-19.85,1.34-2.69.94-5.1,1.22-5.13-2.78-.06-9-4.85-5.74-8.08-2.59-7.61,7.45-11.6,17.37-12.93,27.43-.71,5.39-.48,14.19,9.53,14.54,2.28.09,3.33,2,3.76,3.93,1.95,9.12,7.11,6.91,12.17,3.23,8.81-6.4,17.66-12.56,28.5-15.14,2.95-.7,5.86-2.76,3.07-5.83C475.59,969.85,476.75,964.84,477.35,960.85Zm-32.3-72.54c.85,2.85-3.33,8.88,3.13,9.69,13.42,1.67,27,11.09,40.55-.18,2-1.63,5.24-1.65,7.89-2.49,2.9-.92,7.67.83,7.95-4,.26-4.48-3.73-5.83-7.4-6.49-12.08-2.18-23.73-5.72-35.41-9.48C447.78,870.85,445.78,872.74,445.05,888.31Zm-2-7c-.14-2.61.56-5.42-2.18-6.83a7.65,7.65,0,0,0-7.86.62c-2.09,1.3-4.18,2.61-6.36,3.75-3.27,1.71-9.07.1-9.77,4.59s5.56,4.49,7.86,7.46a3,3,0,0,0,.59.58c10.41,7.83,15.17,6.09,17.13-6.26C442.7,883.82,442.89,882.45,443.07,881.27ZM628.8,970.13c8.64.25,9.63-.59,10.48-6.1.74-4.89-.9-6.48-5.85-8.58-8-3.4-14,1.33-20.85,2.4-2.84.45-3.48,3.26-3.44,5.94,0,2.91,2,3.47,4.41,3.82C619.29,968.44,625,969.49,628.8,970.13Zm-103.28.06c6.33-1.42,12.19-2.87,18.1-4,2.2-.41,4.69.07,4.61-3.22-.05-2.42-1.06-4.4-3.73-4.72-6.61-.81-12.11-6.76-20.07-2.56-3.57,1.88-7.76,1-7.54,6.92C517.13,968.91,522,968.94,525.52,970.19ZM440,1085.36c0-1.11,0-2.22,0-3.33-.11-3,.52-6.61-3.69-7.26s-4.81,2.93-5.79,5.77c-1.63,4.73-3.27,9.46-4.67,14.25-.88,3-1.45,6.38,2.74,7.44,3.75,1,7.34.52,8.93-3.81A44.25,44.25,0,0,0,440,1085.36Z" transform="translate(0.5 1)"/><path class="cls-1" d="M421.5,1365.5" transform="translate(0.5 1)"/><path class="cls-1" d="M-530.5,1598.5" transform="translate(0.5 1)"/><polygon class="cls-2" points="432 1366.5 1 2242.36 0.5 2112.27 432 1366.5"/><path class="cls-3" d="M-707.5,1654.5" transform="translate(0.5 1)"/><polygon class="cls-4" points="705 1383.5 1125.5 2242.36 1126 2082.82 705 1383.5"/><path class="cls-5" d="M115.5,1956.5" transform="translate(0.5 1)"/><path class="cls-5" d="M441.5,1875.5" transform="translate(0.5 1)"/><path class="cls-5" d="M326,2192.77" transform="translate(0.5 1)"/><polyline class="cls-6" points="479 1804.5 523 1673.5 614 1673.5 643 1804.5"/></svg>