<svg id="Calque_1" data-name="Calque 1" xmlns="http://www.w3.org/2000/svg" viewBox="0 0 1125 2436"><defs><style>.cls-1{fill:none;stroke:#4d4d4d;stroke-miterlimit:10;opacity:0.2;}</style></defs><title>page3</title><rect class="cls-1" x="-60" y="-5" width="300" height="300" rx="100" transform="translate(-23.81 17.83) rotate(-10)"/><rect class="cls-1" x="237" y="-56" width="300" height="300" rx="100" transform="translate(-10.44 68.63) rotate(-10)"/><rect class="cls-1" x="534" y="-108" width="300" height="300" rx="100" transform="translate(3.1 119.41) rotate(-10)"/><rect class="cls-1" x="828" y="-160" width="300" height="300" rx="100" transform="translate(16.59 169.68) rotate(-10)"/><rect class="cls-1" x="-6" y="291" width="300" height="300" rx="100" transform="translate(-74.39 31.71) rotate(-10)"/><rect class="cls-1" x="289" y="239" width="300" height="300" rx="100" transform="translate(-60.88 82.14) rotate(-10)"/><rect class="cls-1" x="586" y="187" width="300" height="300" rx="100" transform="translate(-47.34 132.92) rotate(-10)"/><rect class="cls-1" x="882" y="135" width="300" height="300" rx="100" transform="translate(-33.81 183.53) rotate(-10)"/><rect class="cls-1" x="44" y="588" width="300" height="300" rx="100" transform="translate(-125.21 44.9) rotate(-10)"/><rect class="cls-1" x="339" y="536" width="300" height="300" rx="100" transform="translate(-111.69 95.34) rotate(-10)"/><rect class="cls-1" x="636" y="484" width="300" height="300" rx="100" transform="translate(-98.15 146.12) rotate(-10)"/><rect class="cls-1" x="930" y="432" width="300" height="300" rx="100" transform="translate(-84.66 196.38) rotate(-10)"/><rect class="cls-1" x="91" y="883" width="300" height="300" rx="100" transform="translate(-175.72 57.54) rotate(-10)"/><rect class="cls-1" x="386" y="831" width="300" height="300" rx="100" transform="translate(-162.21 107.98) rotate(-10)"/><rect class="cls-1" x="681" y="779" width="300" height="300" rx="100" transform="translate(-148.69 158.42) rotate(-10)"/><rect class="cls-1" x="977" y="730" width="300" height="300" rx="100" transform="translate(-135.69 209.07) rotate(-10)"/><rect class="cls-1" x="143" y="1178" width="300" height="300" rx="100" transform="translate(-226.15 71.05) rotate(-10)"/><rect class="cls-1" x="438" y="1126" width="300" height="300" rx="100" transform="translate(-212.64 121.49) rotate(-10)"/><rect class="cls-1" x="733" y="1074" width="300" height="300" rx="100" transform="translate(-199.13 171.93) rotate(-10)"/><rect class="cls-1" x="1029" y="1026" width="300" height="300" rx="100" transform="translate(-186.3 222.6) rotate(-10)"/><rect class="cls-1" x="192" y="1473" width="300" height="300" rx="100" transform="translate(-276.64 84.04) rotate(-10)"/><rect class="cls-1" x="487" y="1421" width="300" height="300" rx="100" transform="translate(-263.12 134.48) rotate(-10)"/><rect class="cls-1" x="784" y="1369" width="300" height="300" rx="100" transform="translate(-249.58 185.26) rotate(-10)"/><rect class="cls-1" x="1080" y="1319.5" width="300" height="300" rx="100" transform="translate(-236.49 235.91) rotate(-10)"/><rect class="cls-1" x="-42" y="1824" width="300" height="300" rx="100" transform="translate(-341.14 48.74) rotate(-10)"/><rect class="cls-1" x="251" y="1767" width="300" height="300" rx="100" transform="translate(-326.79 98.76) rotate(-10)"/><rect class="cls-1" x="548" y="1714" width="300" height="300" rx="100" transform="translate(-313.08 149.52) rotate(-10)"/><rect class="cls-1" x="844" y="1662" width="300" height="300" rx="100" transform="translate(-299.55 200.13) rotate(-10)"/><rect class="cls-1" x="9" y="2119" width="300" height="300" rx="100" transform="translate(-391.59 62.08) rotate(-10)"/><rect class="cls-1" x="303" y="2062" width="300" height="300" rx="100" transform="translate(-377.23 112.27) rotate(-10)"/><rect class="cls-1" x="599" y="2009" width="300" height="300" rx="100" transform="matrix(0.98, -0.17, 0.17, 0.98, -363.53, 162.86)"/><rect class="cls-1" x="893" y="1957" width="300" height="300" rx="100" transform="matrix(0.98, -0.17, 0.17, 0.98, -350.03, 213.13)"/><rect class="cls-1" x="-104" y="1530" width="300" height="300" rx="100" transform="matrix(0.98, -0.17, 0.17, 0.98, -291.03, 33.51)"/><rect class="cls-1" x="-153" y="1234" width="300" height="300" rx="100" transform="translate(-240.37 20.51) rotate(-10)"/><rect class="cls-1" x="-204" y="938" width="300" height="300" rx="100" transform="translate(-189.75 7.15) rotate(-10)"/><rect class="cls-1" x="-252" y="641" width="300" height="300" rx="100" transform="translate(-138.91 -5.7) rotate(-10)"/><rect class="cls-1" x="62" y="2414" width="300" height="300" rx="100" transform="translate(-442.01 75.77) rotate(-10)"/><rect class="cls-1" x="356" y="2358" width="300" height="300" rx="100" transform="translate(-427.82 125.97) rotate(-10)"/><rect class="cls-1" x="652" y="2305" width="300" height="300" rx="100" transform="matrix(0.98, -0.17, 0.17, 0.98, -414.12, 176.56)"/><rect class="cls-1" x="946" y="2253" width="300" height="300" rx="100" transform="translate(-400.63 226.83) rotate(-10)"/><rect class="cls-1" x="0.5" y="0.5" width="1125" height="2437"/></svg>