<?xml version="1.0" encoding="UTF-8"?>
<svg xmlns="http://www.w3.org/2000/svg" xmlns:xlink="http://www.w3.org/1999/xlink" width="2834.88" height="2834.88" viewBox="0 0 2834.88 2834.88">
<path fill-rule="evenodd" fill="rgb(0%, 0%, 0%)" fill-opacity="1" d="M 1589.679688 1496.960938 L 1589.679688 2210.179688 C 1589.679688 2255.890625 1571.519531 2299.734375 1539.199219 2332.058594 C 1506.878906 2364.382812 1463.039062 2382.539062 1417.320312 2382.539062 C 1322.128906 2382.539062 1244.960938 2305.371094 1244.960938 2210.179688 L 1244.960938 1496.960938 C 1244.960938 1451.25 1263.121094 1407.410156 1295.449219 1375.078125 C 1327.769531 1342.761719 1371.609375 1324.601562 1417.320312 1324.601562 C 1512.519531 1324.601562 1589.691406 1401.769531 1589.691406 1496.960938 Z M 1208.378906 1963.976562 C 1182.421875 1947.9375 1158.191406 1928.835938 1136.269531 1906.910156 C 1061.730469 1832.371094 1019.851562 1731.269531 1019.851562 1625.859375 L 1019.851562 1087.230469 C 1019.851562 1016.289062 1048.03125 948.261719 1098.191406 898.109375 C 1118.589844 877.699219 1141.949219 860.941406 1167.261719 848.21875 C 1155.710938 824.039062 1147.558594 797.929688 1143.441406 770.511719 L 977.347656 770.511719 C 970.882812 770.511719 964.679688 767.941406 960.109375 763.371094 C 955.535156 758.789062 952.96875 752.589844 952.96875 746.128906 L 952.96875 744.578125 L 782.78125 744.578125 C 763.144531 744.578125 747.222656 728.660156 747.222656 709.019531 L 747.222656 695.058594 C 747.222656 675.421875 763.144531 659.5 782.78125 659.5 L 952.96875 659.5 L 952.96875 657.949219 C 952.96875 651.488281 955.535156 645.28125 960.109375 640.710938 C 964.679688 636.140625 970.882812 633.570312 977.347656 633.570312 L 1157.289062 633.570312 C 1196.230469 527.699219 1298.019531 452.109375 1417.320312 452.109375 C 1536.628906 452.109375 1638.421875 527.699219 1677.359375 633.570312 L 1857.300781 633.570312 C 1863.761719 633.570312 1869.960938 636.140625 1874.539062 640.710938 C 1879.109375 645.28125 1881.679688 651.488281 1881.679688 657.949219 L 1881.679688 659.5 L 2051.859375 659.5 C 2071.5 659.5 2087.421875 675.421875 2087.421875 695.058594 L 2087.421875 709.019531 C 2087.421875 728.660156 2071.5 744.578125 2051.859375 744.578125 L 1881.679688 744.578125 L 1881.679688 746.128906 C 1881.679688 752.589844 1879.109375 758.789062 1874.539062 763.371094 C 1869.960938 767.941406 1863.761719 770.511719 1857.300781 770.511719 L 1691.210938 770.511719 C 1687.078125 797.929688 1678.941406 824.039062 1667.378906 848.21875 C 1692.691406 860.941406 1716.050781 877.699219 1736.460938 898.109375 C 1786.609375 948.261719 1814.789062 1016.289062 1814.789062 1087.230469 L 1814.789062 1625.859375 C 1814.789062 1768.71875 1739.421875 1893.980469 1626.269531 1964.039062 L 1626.269531 1496.960938 C 1626.269531 1381.558594 1532.71875 1288.011719 1417.320312 1288.011719 C 1361.910156 1288.011719 1308.761719 1310.03125 1269.578125 1349.210938 C 1230.390625 1388.398438 1208.378906 1441.539062 1208.378906 1496.960938 Z M 1417.320312 566.238281 C 1327.449219 566.238281 1254.488281 639.199219 1254.488281 729.070312 C 1254.488281 818.941406 1327.449219 891.910156 1417.320312 891.910156 C 1507.191406 891.910156 1580.160156 818.941406 1580.160156 729.070312 C 1580.160156 639.199219 1507.191406 566.238281 1417.320312 566.238281 "/>
</svg>
